# xmcd CD database file
#
# Track frame offsets:
#	150
#	16810
#	35190
#	48795
#	63223
#	78388
#	94865
#	113010
#	134325
#	149641
#	174588
#	191827
#	209689
#	225447
#
# Disc length: 3190 seconds
#
# Revision: 1
# Processed by: cddbd v1.5.1PL0 Copyright (c) Steve Scherf et al.
# Submitted via: CDex 1.51
#
DISCID=c30c740e
DTITLE=VIR - Nie Wiem
DYEAR=2005
DGENRE=New Age
TTITLE0=Vir - Nie Wiem
TTITLE1=Vir - Trzy Dni
TTITLE2=Vir - Plynie Czas
TTITLE3=Vir - In Your Eyes
TTITLE4=Vir - Milosc Przez Gniew
TTITLE5=Vir - Jak Ikar
TTITLE6=Vir - Prayers
TTITLE7=Vir - Romance
TTITLE8=Vir - Nie Mow Ze Nie Kochasz
TTITLE9=Vir - My Way
TTITLE10=Vir - Opadam Z Sil
TTITLE11=Vir - Be Strong
TTITLE12=Vir - Dobrze Ze Jestes
TTITLE13=Vir - Zdarzy Sie Cud
EXTD=YEAR: 2005
EXTT0=
EXTT1=
EXTT2=
EXTT3=
EXTT4=
EXTT5=
EXTT6=
EXTT7=
EXTT8=
EXTT9=
EXTT10=
EXTT11=
EXTT12=
EXTT13=
PLAYORDER=
